<svg viewBox="0 0 60 25" xmlns="http://www.w3.org/2000/svg">
  <path fill="#635BFF" d="M5 10.3c0-.7.6-1 1.5-1 1.4 0 3.1.4 4.5 1.2V6.3C9.4 5.8 7.9 5.5 6.5 5.5 2.6 5.5 0 7.5 0 10.7c0 5 6.9 4.2 6.9 6.4 0 .8-.7 1.1-1.7 1.1-1.5 0-3.4-.6-4.9-1.4v4.3c1.7.7 3.4 1 4.9 1 4 0 6.8-2 6.8-5.2C12 11.5 5 12.5 5 10.3zm14.3-4.6l-3.8.8v3.8h3.8V5.7zm0 5.6h-3.8v12h3.8v-12zm8.6 0l-.2-1.3h-3.4v12h3.8V14c.9-1.2 2.4-1 2.9-.8V9.4c-.5-.2-2.4-.6-3.1.9zm7.6-.9c-.7 0-1.2.3-1.5.8l-.1-.8h-3.4v15.3l3.8-.8v-3.7c.3.2.8.5 1.5.5 1.5 0 2.9-1.2 2.9-3.8v-3.8c0-2.4-1.4-3.7-3.2-3.7zm-.6 7.2c-.5 0-.8-.2-1-.4v-3.3c.2-.2.5-.4 1-.4.8 0 1.3.9 1.3 2v.2c0 1.1-.5 1.9-1.3 1.9zm11.3-3.4c0-2.3-1.1-4.1-3.2-4.1-2.1 0-3.4 1.8-3.4 4.1v.2c0 2.7 1.4 4.1 3.8 4.1 1.1 0 2-.3 2.6-.7v-2.8c-.6.3-1.3.5-2.1.5-.8 0-1.5-.3-1.6-1.2h4.8v-1.1h.1zm-4.8-.5c0-.9.5-1.3 1.1-1.3s1.1.4 1.1 1.3h-2.2z"/>
</svg>