<?xml version="1.0" encoding="UTF-8"?>
<svg xmlns="http://www.w3.org/2000/svg" viewBox="0 0 1000 1000">
  <path fill="#1EB05A" d="M728.4,374.5c-4.8-2.7-10-4.9-14.9-7.6c-33.5-19.2-65.7-40.9-97.6-62.8c-17.7-12.2-34.6-25.7-52.1-38.2
    c-4.7-3.3-10.8-4.3-16.1-6.7c-6.3-2.9-12.5-5.9-18.8-8.9c-10.8-5.1-21.7-10.2-32.5-15.4c-5.9-2.8-11.9-5.6-17.8-8.4
    c-12.4-5.9-24.9-11.8-37.3-17.7c-17.3-8.2-34.7-16.5-52-24.7c-34.2-16.2-68.3-32.4-102.5-48.6c-28.7-13.6-57.3-27.2-86-40.8
    c-6-2.8-12-5.7-18-8.5c-18.8-8.9-37.6-17.8-56.4-26.7c-11.6-5.5-23.3-10.9-34.9-16.4c-6.8-3.2-13.5-6.4-20.3-9.5
    c-3-1.4-6.2-2.2-9.2-3.5c-8.2-3.6-16.3-7.3-24.4-11c-3.8-1.7-7.5-3.6-11.3-5.3c-11.4-5.3-22.8-10.6-34.2-16
    c-13.3-6.2-26.7-12.5-39.9-18.7c-2.5-1.2-4.6-2.9-6.9-4.4c-1.1,1.8-2.3,3.6-3.4,5.4c-1.4,2.3-2.8,4.5-4.1,6.8
    c-5.2,8.5-10.3,17-15.5,25.5c-11.1,18.1-22.3,36.3-33.4,54.4c-2.9,4.7-5.7,9.4-8.6,14.1c-12.1,20-24.1,39.9-36.2,59.9
    c-4.3,7.1-8.6,14.3-12.9,21.4c-4.3,7.2-8.7,14.3-13,21.5c-1.4,2.4-2.8,4.7-4.2,7.1c-1.3,2.1-2.5,4.2-3.8,6.3
    c1.6,1.1,3.3,2.2,4.9,3.3c6.7,4.5,13.3,9,20,13.5c14.5,9.9,29.1,19.8,43.6,29.7c8.3,5.7,16.6,11.4,24.9,17.1
    c14.3,9.7,28.7,19.4,43,29.2c24.4,16.5,48.7,33,73.1,49.5c4.7,3.2,9.4,6.4,14.1,9.6c9.3,6.3,18.5,12.7,27.8,19
    c4.6,3.1,9.2,6.3,13.8,9.4c18.6,12.6,37.2,25.2,55.9,37.8c5.5,3.7,11.1,7.3,16.6,11c5.7,3.8,11.5,7.6,17.2,11.4
    c9.9,6.6,19.8,13.2,29.7,19.8c10.4,7,20.9,13.9,31.3,20.9c6.3,4.2,12.6,8.4,18.8,12.6c14.4,9.6,28.8,19.3,43.2,28.9
    c10.6,7.1,21.2,14.3,31.8,21.4c9.6,6.5,19.2,13,28.8,19.5c8.9,6,17.8,12.1,26.8,18.1c8.3,5.6,16.7,11.1,25,16.7
    c12.6,8.5,25.2,17,37.8,25.5c5.7,3.9,11.4,7.7,17.2,11.6c1.7,1.1,3.5,2.1,5.2,3.2c7.3,4.5,14.6,8.9,21.8,13.4
    c3.9,2.4,8.1,4.4,12.4,6c0.8,0.3,1.8-0.1,2.6-0.2c0.1-1.1,0.1-2.1,0.1-3.2c-0.7-31-1.3-62-2-92.9c-0.8-35.9-1.5-71.8-2.3-107.7
    c-0.4-20.1-0.9-40.2-1.3-60.3c-0.1-3.4-0.1-6.7-0.1-10.1c0-0.9,0.2-1.9,0.3-2.8c8.3-44.5,16.5-89,24.8-133.5
    c2.4-12.6,5-25.2,7.3-37.8c2.1-11.5,3.8-23,5.8-34.5c2.1-12.1,4.4-24.1,6.6-36.2c1.3-7.1,2.8-14.2,4.1-21.3
    c0.2-1.2,0.2-2.4,0.4-3.9c-0.9,0.3-1.5,0.4-2,0.7C736.5,370.2,732.4,372.3,728.4,374.5z"/>
  
  <path fill="#1EB05A" d="M973.6,651.2c-1.7-10.1-3.5-20.1-5.2-30.2c-2.3-13.3-4.7-26.5-6.9-39.8c-3.2-18.9-6.3-37.8-9.5-56.8
    c-0.5-3.2-0.7-6.5-1.3-9.7c-1.3-6.7-2.7-13.4-4.2-20.1c-1.5-6.4-3.6-12.7-5-19.1c-4.6-19.8-11.3-38.8-20.7-56.7
    c-5.2-9.8-11.4-19-18.1-27.8c-7.8-10.3-17.6-17.9-30.4-21.1c-12.7-3.2-24.5-0.6-35.8,5.4c-8.4,4.5-14.7,11.2-19.3,19.4
    c-6.4,11.4-11.2,23.5-15.2,35.9c-2.7,8.4-5.4,16.9-7.9,25.4c-4.3,14.9-8.5,29.8-12.7,44.7c-3.1,10.8-6.2,21.6-9.3,32.4
    c-3.2,11-6.3,22-9.4,33c-5.1,18-10.1,36-15.2,54c-0.6,2-1.1,4.1-1.7,6.1c-1.6,4.9-4.2,9.4-6.1,14.2c-2.5,6.2-6,11.7-10.5,16.7
    c-6.2,6.8-13.5,12-22.3,14.7c-12.8,3.9-25.2,2.5-36.8-4c-5.8-3.2-11.1-7.2-16.7-10.7c-8.5-5.4-17.1-10.6-25.7-15.9
    c-24-14.7-48.1-29.4-72.1-44.1c-18.1-11.1-36.1-22.2-54.2-33.2c-14.8-9-29.6-18-44.5-27c-22.2-13.5-44.4-27-66.6-40.4
    c-16.9-10.3-33.9-20.5-50.8-30.8c-28.1-17-56.2-34-84.3-51c-3.8-2.3-7.7-4.5-11.6-6.8c0,1.2,0,2,0,2.7c0,71.5,0,143,0,214.5
    c0,4.2,0.4,8.4,0.6,12.5c0.1,1.6,0.6,3.3,0.7,4.9c0.2,3.1,0.3,6.3,0.4,9.4c0.1,1.5,0.2,2.9,0.2,4.4c0.1,4.4,0.1,8.8,0.1,13.2
    c0,3.4,0,6.8,0,10.2c0,1.7,0.1,3.3,0.2,5c0.5,5.7,1,11.4,1.6,17.1c1.2,11.2,3.6,22.2,7.7,32.7c4.5,11.6,10.8,21.9,20,30.1
    c13.4,11.8,28.8,20,45.2,26.5c9.7,3.8,19.6,7.2,29.6,10.3c13.5,4.2,27.2,7.9,41,11.2c27.3,6.4,54.9,10.2,82.8,12.8
    c17.9,1.7,35.8,3.1,53.8,3.6c5.1,0.1,10.2-0.3,15.2-0.7c4.3-0.3,8.5-1.3,12.8-1.6c2.7-0.2,5.5,0.1,8.3,0.3c1.6,0.1,3.3,0.5,5,0.6
    c2.7,0.2,5.3,0.2,8,0.3c1.7,0.1,3.3,0.2,5,0.2c3.8,0.1,7.7,0.1,11.5,0.2c7,0.3,14,0.7,21,0.9c10.3,0.4,20.5,0.4,30.7,0.4
    c2.7,0,5.3-0.5,8-0.8c1.5-0.2,2.9-0.7,4.4-0.8c4.4-0.2,8.8-0.3,13.2-0.4c1.2,0,2.4,0,3.7,0c1.8,0,3.7,0,5.5,0
    c2,0,3.9-0.1,5.9-0.1c1.5,0,2.9,0.1,4.4,0.1c1.5,0,2.9,0,4.4,0c1.5,0,2.9,0,4.4-0.1c4.3-0.1,8.5-0.3,12.8-0.5
    c1.5-0.1,2.9-0.1,4.4-0.2c1.1-0.1,2.3-0.3,3.4-0.3c3-0.1,6-0.1,9-0.2c2-0.1,4-0.2,6-0.3c2.7-0.1,5.5-0.3,8.2-0.4
    c1.5-0.1,2.9-0.2,4.4-0.3c1.9-0.1,3.9-0.3,5.8-0.4c1.3-0.1,2.7-0.2,4-0.3c1.3-0.1,2.6-0.3,4-0.4c2.3-0.2,4.5-0.3,6.8-0.5
    c1.5-0.1,2.9-0.3,4.4-0.4c3.1-0.3,6.2-0.6,9.3-0.9c1.5-0.1,2.9-0.3,4.4-0.4c4.9-0.5,9.8-1,14.7-1.5c1.3-0.1,2.7-0.3,4-0.4
    c2.3-0.2,4.6-0.5,6.9-0.7c1.4-0.1,2.7-0.3,4.1-0.4c2.8-0.3,5.5-0.6,8.3-0.9c1.3-0.1,2.6-0.3,3.9-0.4c2.3-0.3,4.7-0.5,7-0.8
    c1.3-0.1,2.6-0.3,3.9-0.4c2.3-0.3,4.7-0.5,7-0.8c1.3-0.1,2.6-0.3,3.9-0.4c0.7-0.1,1.3-0.2,2-0.2c1.3-0.1,2.6-0.3,3.9-0.4
    c4.3-0.5,8.6-1,12.9-1.5c1.3-0.2,2.6-0.3,3.9-0.5c1.7-0.2,3.3-0.4,5-0.6c1.2-0.1,2.4-0.3,3.7-0.4c3.3-0.4,6.6-0.8,9.9-1.2
    c1.2-0.1,2.3-0.3,3.5-0.4c3-0.4,6.1-0.7,9.1-1.1c1.2-0.1,2.4-0.3,3.5-0.4c3-0.4,6-0.7,9-1.1c1.1-0.1,2.2-0.3,3.4-0.4
    c4.3-0.5,8.6-1.1,12.9-1.6c1-0.1,2-0.3,3-0.4c1.6-0.2,3.3-0.4,4.9-0.6c1-0.1,2-0.3,3-0.4c1.6-0.2,3.3-0.4,4.9-0.6
    c1-0.1,1.9-0.3,2.9-0.4c2.9-0.4,5.9-0.7,8.8-1.1c0.9-0.1,1.8-0.2,2.7-0.3c3.3-0.4,6.6-0.8,9.9-1.3c0.8-0.1,1.6-0.2,2.5-0.3
    c2-0.3,3.9-0.5,5.9-0.8c0.8-0.1,1.5-0.2,2.3-0.3c2-0.3,3.9-0.5,5.9-0.8c0.8-0.1,1.5-0.2,2.3-0.3c3.3-0.4,6.6-0.9,9.9-1.3
    c0.6-0.1,1.2-0.2,1.9-0.3c2.4-0.3,4.9-0.7,7.3-1c0.6-0.1,1.2-0.2,1.8-0.3c3.3-0.5,6.6-0.9,9.9-1.4c0.4-0.1,0.8-0.1,1.3-0.2
    c2.2-0.3,4.4-0.6,6.6-0.9c0.3,0,0.6-0.1,0.9-0.1c0.1,0,0.1,0,0.2,0c0.2,0,0.4-0.1,0.7-0.1c2.4-0.3,4.8-0.7,7.2-1
    c0.4-0.1,0.8-0.1,1.2-0.2c2-0.3,3.9-0.6,5.9-0.8c0.2,0,0.4-0.1,0.7-0.1c1-0.1,1.9-0.3,2.9-0.4c1-0.1,1.9-0.3,2.9-0.4
    c1-0.1,1.9-0.3,2.9-0.4c0.8-0.1,1.6-0.2,2.4-0.3c3.8-0.5,7.6-1.1,11.4-1.6c3.9-0.5,7.7-1.3,11.3-2.7c8.4-3.3,14.4-9.1,18.8-16.7
    c4.5-7.7,6.8-16.2,7.6-25.1C974,673.7,974.5,662.4,973.6,651.2z"/>
  
  <text x="185" y="950" font-family="Arial, sans-serif" font-weight="bold" font-size="180" fill="#1EB05A">HEDGE PAY</text>
</svg> 