<?xml version="1.0" encoding="UTF-8"?>
<svg xmlns="http://www.w3.org/2000/svg" viewBox="0 0 512 512">
  <path fill="#1EB05A" d="M373.9,192.2c-2.5-1.4-5.1-2.5-7.6-3.9c-17.2-9.8-33.7-21-50.1-32.2c-9.1-6.3-17.8-13.2-26.7-19.6
    c-2.4-1.7-5.5-2.2-8.3-3.4c-3.2-1.5-6.4-3-9.6-4.6c-5.5-2.6-11.1-5.2-16.7-7.9c-3-1.4-6.1-2.9-9.1-4.3
    c-6.4-3-12.8-6.1-19.1-9.1c-8.9-4.2-17.8-8.5-26.7-12.7c-17.5-8.3-35.1-16.6-52.6-24.9c-14.7-7-29.4-14-44.1-20.9
    c-3.1-1.4-6.2-2.9-9.2-4.4c-9.6-4.6-19.3-9.1-28.9-13.7c-6-2.8-11.9-5.6-17.9-8.4c-3.5-1.6-6.9-3.3-10.4-4.9
    c-1.5-0.7-3.2-1.1-4.7-1.8c-4.2-1.8-8.4-3.7-12.5-5.6c-1.9-0.9-3.8-1.8-5.8-2.7c-5.9-2.7-11.7-5.4-17.6-8.2
    c-6.8-3.2-13.7-6.4-20.5-9.6c-1.3-0.6-2.4-1.5-3.5-2.3c-0.6,0.9-1.2,1.8-1.7,2.8c-0.7,1.2-1.4,2.3-2.1,3.5
    c-2.7,4.4-5.3,8.7-7.9,13.1c-5.7,9.3-11.4,18.6-17.1,27.9c-1.5,2.4-2.9,4.8-4.4,7.2c-6.2,10.3-12.4,20.5-18.6,30.7
    c-2.2,3.6-4.4,7.3-6.6,11c-2.2,3.7-4.5,7.3-6.7,11c-0.7,1.2-1.4,2.4-2.2,3.6c-0.7,1.1-1.3,2.2-1.9,3.2
    c0.8,0.6,1.7,1.1,2.5,1.7c3.4,2.3,6.8,4.6,10.3,6.9c7.4,5.1,14.9,10.2,22.4,15.2c4.3,2.9,8.5,5.8,12.8,8.8
    c7.3,5,14.7,9.9,22.1,15c12.5,8.5,25,16.9,37.5,25.4c2.4,1.6,4.8,3.3,7.2,4.9c4.8,3.2,9.5,6.5,14.3,9.7
    c2.4,1.6,4.7,3.2,7.1,4.8c9.5,6.5,19.1,12.9,28.7,19.4c2.8,1.9,5.7,3.7,8.5,5.6c2.9,2,5.9,3.9,8.8,5.9
    c5.1,3.4,10.2,6.8,15.2,10.2c5.3,3.6,10.7,7.1,16.1,10.7c3.2,2.2,6.5,4.3,9.7,6.5c7.4,4.9,14.8,9.9,22.2,14.8
    c5.4,3.6,10.9,7.3,16.3,11c4.9,3.3,9.9,6.7,14.8,10c4.6,3.1,9.1,6.2,13.7,9.3c4.3,2.9,8.6,5.7,12.8,8.6
    c6.5,4.4,12.9,8.7,19.4,13.1c2.9,2,5.9,3.9,8.8,5.9c0.9,0.6,1.8,1.1,2.7,1.6c3.7,2.3,7.5,4.6,11.2,6.9
    c2,1.2,4.2,2.3,6.4,3.1c0.4,0.2,0.9-0.1,1.3-0.1c0.1-0.6,0.1-1.1,0.1-1.6c-0.4-15.9-0.7-31.8-1-47.7c-0.4-18.4-0.8-36.8-1.2-55.2
    c-0.2-10.3-0.5-20.6-0.7-30.9c-0.1-1.7-0.1-3.4-0.1-5.2c0-0.5,0.1-1,0.2-1.4c4.3-22.8,8.5-45.7,12.7-68.5
    c1.2-6.5,2.6-12.9,3.7-19.4c1.1-5.9,1.9-11.8,3-17.7c1.1-6.2,2.3-12.4,3.4-18.6c0.7-3.6,1.4-7.3,2.1-10.9
    c0.1-0.6,0.1-1.2,0.2-2c-0.5,0.2-0.8,0.2-1,0.4C378.1,190,376,191.1,373.9,192.2z"/>
  
  <path fill="#1EB05A" d="M499.8,334.1c-0.9-5.2-1.8-10.3-2.7-15.5c-1.2-6.8-2.4-13.6-3.5-20.4c-1.6-9.7-3.2-19.4-4.9-29.1
    c-0.3-1.6-0.4-3.3-0.7-5c-0.7-3.4-1.4-6.9-2.2-10.3c-0.8-3.3-1.8-6.5-2.6-9.8c-2.4-10.2-5.8-19.9-10.6-29.1
    c-2.7-5-5.8-9.7-9.3-14.3c-4-5.3-9-9.2-15.6-10.8c-6.5-1.6-12.6-0.3-18.4,2.8c-4.3,2.3-7.5,5.7-9.9,10c-3.3,5.8-5.7,12.1-7.8,18.4
    c-1.4,4.3-2.8,8.7-4.1,13c-2.2,7.6-4.4,15.3-6.5,22.9c-1.6,5.5-3.2,11.1-4.8,16.6c-1.6,5.6-3.2,11.3-4.8,16.9
    c-2.6,9.2-5.2,18.5-7.8,27.7c-0.3,1-0.6,2.1-0.9,3.1c-0.8,2.5-2.2,4.8-3.1,7.3c-1.3,3.2-3.1,6-5.4,8.6c-3.2,3.5-6.9,6.2-11.4,7.5
    c-6.6,2-12.9,1.3-18.9-2.1c-3-1.6-5.7-3.7-8.6-5.5c-4.4-2.8-8.8-5.4-13.2-8.2c-12.3-7.5-24.7-15.1-37-22.6
    c-9.3-5.7-18.5-11.4-27.8-17c-7.6-4.6-15.2-9.2-22.8-13.9c-11.4-6.9-22.8-13.9-34.2-20.7c-8.7-5.3-17.4-10.5-26.1-15.8
    c-14.4-8.7-28.8-17.4-43.3-26.2c-1.9-1.2-4-2.3-6-3.5c0,0.6,0,1,0,1.4c0,36.7,0,73.4,0,110.1c0,2.2,0.2,4.3,0.3,6.4
    c0.1,0.8,0.3,1.7,0.4,2.5c0.1,1.6,0.2,3.2,0.2,4.8c0.1,0.8,0.1,1.5,0.1,2.3c0.1,2.3,0.1,4.5,0.1,6.8c0,1.7,0,3.5,0,5.2
    c0,0.9,0.1,1.7,0.1,2.6c0.3,2.9,0.5,5.8,0.8,8.8c0.6,5.7,1.8,11.4,4,16.8c2.3,5.9,5.5,11.2,10.3,15.4c6.9,6.1,14.8,10.3,23.2,13.6
    c5,1.9,10.1,3.7,15.2,5.3c6.9,2.2,14,4.1,21,5.7c14,3.3,28.2,5.2,42.5,6.6c9.2,0.9,18.4,1.6,27.6,1.8c2.6,0.1,5.2-0.2,7.8-0.4
    c2.2-0.2,4.4-0.7,6.6-0.8c1.4-0.1,2.8,0.1,4.3,0.2c0.8,0.1,1.7,0.3,2.6,0.3c1.4,0.1,2.7,0.1,4.1,0.2c0.9,0.1,1.7,0.1,2.6,0.1
    c1.9,0.1,3.9,0.1,5.9,0.1c3.6,0.2,7.2,0.4,10.8,0.5c5.3,0.2,10.5,0.2,15.8,0.2c1.4,0,2.7-0.3,4.1-0.4c0.8-0.1,1.5-0.4,2.3-0.4
    c2.3-0.1,4.5-0.2,6.8-0.2c0.6,0,1.2,0,1.9,0c0.9,0,1.9,0,2.8,0c1,0,2-0.1,3-0.1c0.8,0,1.5,0.1,2.3,0.1c0.8,0,1.5,0,2.3,0
    c0.8,0,1.5,0,2.3-0.1c2.2-0.1,4.4-0.2,6.6-0.3c0.8,0,1.5-0.1,2.3-0.1c0.6,0,1.2-0.2,1.7-0.2c1.5-0.1,3.1-0.1,4.6-0.1
    c1-0.1,2-0.1,3.1-0.2c1.4-0.1,2.8-0.2,4.2-0.2c0.8-0.1,1.5-0.1,2.3-0.2c1-0.1,2-0.2,3-0.2c0.7-0.1,1.4-0.1,2.1-0.2
    c0.7-0.1,1.3-0.2,2.1-0.2c1.2-0.1,2.3-0.2,3.5-0.3c0.8-0.1,1.5-0.2,2.3-0.2c1.6-0.2,3.2-0.3,4.8-0.5c0.8-0.1,1.5-0.2,2.3-0.2
    c2.5-0.3,5-0.5,7.5-0.8c0.7-0.1,1.4-0.2,2.1-0.2c1.2-0.1,2.4-0.3,3.5-0.4c0.7-0.1,1.4-0.2,2.1-0.2c1.4-0.2,2.8-0.3,4.3-0.5
    c0.7-0.1,1.3-0.2,2-0.2c1.2-0.1,2.4-0.3,3.6-0.4c0.7-0.1,1.3-0.2,2-0.2c1.2-0.2,2.4-0.3,3.6-0.4c0.7-0.1,1.3-0.2,2-0.2
    c0.4-0.1,0.7-0.1,1-0.1c0.7-0.1,1.3-0.2,2-0.2c2.2-0.3,4.4-0.5,6.6-0.8c0.7-0.1,1.3-0.2,2-0.3c0.9-0.1,1.7-0.2,2.6-0.3
    c0.6-0.1,1.2-0.2,1.9-0.2c1.7-0.2,3.4-0.4,5.1-0.6c0.6-0.1,1.2-0.2,1.8-0.2c1.5-0.2,3.1-0.4,4.7-0.6c0.6-0.1,1.2-0.2,1.8-0.2
    c1.5-0.2,3.1-0.4,4.6-0.6c0.6-0.1,1.1-0.2,1.7-0.2c2.2-0.3,4.4-0.6,6.6-0.8c0.5-0.1,1-0.2,1.5-0.2c0.8-0.1,1.7-0.2,2.5-0.3
    c0.5-0.1,1-0.2,1.5-0.2c0.8-0.1,1.7-0.2,2.5-0.3c0.5-0.1,1-0.2,1.5-0.2c1.5-0.2,3-0.4,4.5-0.6c0.4-0.1,0.9-0.1,1.4-0.2
    c1-0.1,2-0.3,3-0.4c0.4-0.1,0.8-0.1,1.2-0.2c1.7-0.3,3.4-0.5,5.1-0.7c0.3-0.1,0.6-0.1,0.9-0.1c1.1-0.2,2.3-0.3,3.4-0.4
    c0.3,0,0.6-0.1,0.9-0.1c0.1,0,0.1,0,0.1,0c0.1,0,0.2-0.1,0.4-0.1c1.2-0.2,2.5-0.4,3.7-0.5c0.2-0.1,0.4-0.1,0.6-0.1
    c1-0.1,2-0.3,3-0.4c0.1,0,0.2-0.1,0.4-0.1c0.5-0.1,1-0.2,1.5-0.2c0.5-0.1,1-0.2,1.5-0.2c0.5-0.1,1-0.2,1.5-0.2
    c0.4-0.1,0.8-0.1,1.2-0.2c1.9-0.3,3.9-0.6,5.9-0.8c2-0.3,4-0.7,5.8-1.4c4.3-1.7,7.4-4.7,9.6-8.6c2.3-3.9,3.5-8.3,3.9-12.9
    C500,345.7,500.2,339.9,499.8,334.1z"/>
</svg> 