<?xml version="1.0" encoding="UTF-8"?>
<svg xmlns="http://www.w3.org/2000/svg" viewBox="0 0 240 240">
  <rect width="240" height="240" fill="#FFBF00"/>
  <path fill="#00205B" d="M50,95c0-12,10-20,25-20h30c15,0,25,8,25,20c0,8-5,14-12,17c9,3,14,9,14,17c0,13-10,21-25,21H75c-15,0-25-8-25-21V95z M95,102h7c4,0,7-2,7-6s-3-6-7-6h-7V102z M95,127h10c4,0,7-2,7-6s-3-6-7-6H95V127z"/>
  <path fill="#00205B" d="M140,75h25v23h-7l17,27h-28l-15-25h-2v25h-25V75h35c0,0,25,0,25,23c0,16-16,18-21,18c0,0,11,1,15,16h-14C145,132,137,117,140,75z"/>
  <path fill="#00205B" d="M50,150c25-15,50-15,80-15c30,0,60,0,60,35c0,0-40,10-80,10S50,180,50,165C50,161,50,156,50,150z"/>
</svg> 