<svg width="512" height="512" viewBox="0 0 512 512" xmlns="http://www.w3.org/2000/svg">
  <rect width="512" height="512" fill="#000000"/>
  <g fill="#FFFFFF">
    <path d="M256 80c-22 0-40 6-57 16s-30 25-40 42-15 36-15 57c0 0.8 0 1.6 0.1 2.4 0 0.8 0.1 1.6 0.1 2.4 0.4 7.2 1.6 14.2 3.4 21 5.4 20 16 38 31 51 19 17 44 26 70 26h16v-44h-16c-13 0-26-5-36-13-9-8-16-20-19-33-1-4-1.6-9-1.8-13-0.1-1-0.1-2-0.1-3 0-13 4-25 12-35s19-17 32-19c3-0.6 7-0.9 10-0.9h17v-44h-15c-20 0-38 6-53 17-14 10-24 24-30 40h-1v-51h-45v167h45v-15h1c6 8 13 14 21 19 15 10 33 16 53 16h15v-44h-17c-3 0-6-0.3-9-0.8-13-2-24-9-32-19s-12-22-12-35c0-1 0-2 0.1-3 0.2-4 0.8-9 1.8-13 3-13 10-25 19-33 10-8 22-13 35-13h16v-44h-14zm117 0l-45 66-45-66h-50l71 100-71 100h50l45-66 45 66h50l-71-100 71-100h-50z"/>
    <path d="M176 383h160v17h-160zM176 410h160v17h-160z"/>
  </g>
</svg>