<?xml version="1.0" encoding="UTF-8"?>
<svg xmlns="http://www.w3.org/2000/svg" viewBox="0 0 240 240">
  <rect width="240" height="240" fill="#000000"/>
  <path fill="#E63631" d="M170,70c-5,0-15,5-25,15c-10-10-20-15-25-15c-5,0,5,30-10,40c-15,10-30,20-30,35c0,15,5,20,20,20h90c15,0,20-5,20-20c0-15-15-25-30-35C165,100,175,70,170,70z"/>
  <path fill="#FFFFFF" d="M50,160v10h10v30h15v-30h10v-10H50z"/>
  <path fill="#FFFFFF" d="M90,160v40h15v-15h5c5,0,10-2,10-10c0-10-5-15-15-15H90z M105,175h-5v-5h5c2,0,5,0,5,3C110,175,107,175,105,175z"/>
  <path fill="#FFFFFF" d="M125,160v40h15v-15h5v15h15v-40h-15v15h-5v-15H125z"/>
  <path fill="#FFFFFF" d="M165,160v40h15v-15h5c5,0,5,5,5,10v5h13v-5c0-10-3-15-10-15c5,0,10-5,10-10c0-5-5-10-15-10H165z M180,173h-5v-3h5c2,0,3,1,3,2C183,173,182,173,180,173z"/>
  <path fill="#FFFFFF" d="M205,160v40h25v-10h-15v-5h10v-10h-10v-5h15v-10H205z"/>
  <text x="120" y="220" font-family="Arial, sans-serif" font-weight="bold" font-size="16" fill="#E63631" text-anchor="middle">Casino</text>
</svg> 