<?xml version="1.0" encoding="UTF-8"?>
<svg xmlns="http://www.w3.org/2000/svg" viewBox="0 0 240 240">
  <rect width="240" height="240" fill="#000000"/>
  <path fill="#C9B870" d="M165,75c-4,0-8,1-12,3c-3-6-8-11-14-14c6-3,10-9,10-16c0-10-8-18-18-18c-8,0-14,5-17,12c-2-1-5-1-7-1c-2,0-5,0-7,1c-3-7-9-12-17-12c-10,0-18,8-18,18c0,7,4,13,10,16c-6,3-11,8-14,14c-4-2-8-3-12-3c-15,0-27,13-27,30c0,16,12,30,27,30c3,0,6-1,9-2c3,9,10,15,19,15c5,0,9-2,12-5c3,1,7,2,11,2c4,0,8-1,11-2c3,3,7,5,12,5c9,0,16-6,19-15c3,1,6,2,9,2c15,0,27-14,27-30C192,88,180,75,165,75z"/>
  <path fill="#000000" d="M120,130c-10,0-20-7-20-25c0-15,10-20,20-20s20,5,20,20C140,123,130,130,120,130z"/>
  <path fill="#C9B870" d="M120,120c-5,0-10-8-10-15c0-7,2-10,10-10s10,3,10,10C130,112,125,120,120,120z"/>
  <path fill="#000000" d="M123,112c0,2-1,4-3,4s-3-2-3-4s1-4,3-4S123,110,123,112z"/>
  <path fill="#C9B870" d="M160,105c-2,0-4,1-5,3c-1-2-3-3-5-3s-4,1-5,3c-1-2-3-3-5-3c-3,0-6,2-6,5s3,5,6,5c2,0,4-1,5-3c1,2,3,3,5,3s4-1,5-3c1,2,3,3,5,3c3,0,6-2,6-5S163,105,160,105z"/>
  <path fill="#C9B870" d="M80,105c-2,0-4,1-5,3c-1-2-3-3-5-3s-4,1-5,3c-1-2-3-3-5-3c-3,0-6,2-6,5s3,5,6,5c2,0,4-1,5-3c1,2,3,3,5,3s4-1,5-3c1,2,3,3,5,3c3,0,6-2,6-5S83,105,80,105z"/>
</svg> 