<svg width="512" height="512" viewBox="0 0 512 512" xmlns="http://www.w3.org/2000/svg">
  <rect width="512" height="512" fill="#000000"/>
  <g fill="#FFFFFF">
    <path d="M256 90l30 60 65 10-47 45 12 65-60-30-60 30 12-65-47-45 65-10 30-60z"/>
    <path d="M120 315c0 12 10 22 22 22h54v-44h-54c-12 0-22 10-22 22zm240-44h-54v44h54c12 0 22-10 22-22s-10-22-22-22zm-176 0h-18v88h44v-44h-8c-6 0-10-4-10-10v-34zm90 0h-18v34c0 6-4 10-10 10h-8v44h44v-88h-8zm-154 88h44v-22h-22v-66h-22v88zm176 0h44v-88h-22v66h-22v22zm-50-138h110c10 0 19 2 28 5 8 3 16 8 22 14 7 6 12 13 15 21 4 8 6 17 6 26s-2 18-6 26c-3 8-8 15-15 21-6 6-14 11-22 14-9 3-18 5-28 5h-110v-44h110c6 0 11-2 15-6 4-4 6-9 6-15s-2-11-6-15c-4-4-9-6-15-6h-110v-46z"/>
    <path d="M176 383h160v17h-160zM176 410h160v17h-160z"/>
  </g>
</svg>