<svg width="512" height="512" viewBox="0 0 512 512" xmlns="http://www.w3.org/2000/svg">
  <rect width="512" height="512" fill="#000000"/>
  <g fill="#FFFFFF">
    <path d="M255.987 107.968c0 0 14.397-10.56 32.307 2.462 17.91 13.022 19.285 22.198 19.285 22.198s10.56-8.098 13.022-19.285c2.462-11.187 9.113-21.572 31.062-22.198 21.949-0.626 26.76 22.824 18.662 37.221-8.098 14.397-23.447 24.66-23.447 24.66s28.258 3.088 42.655 27.226c14.397 24.138 9.586 47.843-6.976 58.429-16.562 10.586-31.063 4.48-31.063 4.48s8.982 19.286-0.743 33.683c-9.725 14.397-29.01 14.397-37.108 12.561-8.098-1.836-37.625-18.662-64.227-18.662v-31.543c7.472 0 28.883 0.626 39.443 5.133 10.56 4.507 23.447 6.343 27.85-0.626 4.403-6.969-5.757-14.397-14.397-16.599-8.64-2.202-20.227-3.713-20.227-3.713s-25.354-3.713-35.288-24.66c-9.934-20.947 0.626-39.443 16.599-47.54 15.973-8.097 25.56-9.725 25.56-9.725s-13.645-9.113-15.973-17.21c-2.328-8.097 0.626-13.64 4.507-16.073z"/>
    <path d="M171.67 151.242c20.5 0 31.875 12.5 31.875 30.375 0 17.625-11.125 30.625-31.875 30.625h-26.875v38.5H117.5v-99.5h54.17zm-27.045 42.625h23.125c8.75 0 13.75-4.75 13.75-12.375 0-7.375-5-12.25-13.75-12.25h-23.125v24.625z"/>
    <path d="M143.125 386.875h226.875v18.75H143.125zM143.125 418.75h226.875v18.75H143.125z"/>
  </g>
</svg>