<?xml version="1.0" encoding="UTF-8"?>
<svg xmlns="http://www.w3.org/2000/svg" viewBox="0 0 240 240">
  <defs>
    <linearGradient id="fanduel-gradient" x1="0%" y1="0%" x2="100%" y2="100%">
      <stop offset="0%" style="stop-color:#1047D1;stop-opacity:1" />
      <stop offset="100%" style="stop-color:#6B0F9F;stop-opacity:1" />
    </linearGradient>
  </defs>
  <rect width="240" height="240" fill="url(#fanduel-gradient)"/>
  <path fill="#FFFFFF" d="M120,60c-27.6,0-50,22.4-50,50c0,2.7,0.3,5.3,0.7,7.9L95,95.3l25,15.4l25-15.4l24.3,22.6c0.4-2.6,0.7-5.2,0.7-7.9C170,82.4,147.6,60,120,60z"/>
  <path fill="#FFFFFF" d="M120,180c4.5,0,16.5-1.2,25-5l-15-15h-20l-15,15C103.5,178.8,115.5,180,120,180z"/>
  <path fill="#FFFFFF" d="M160,130h-80c0,0-5,25,40,25c45,0,40-25,40-25z"/>
  <text x="120" y="210" font-family="Arial, sans-serif" font-weight="bold" font-size="28" fill="white" text-anchor="middle">CASINO</text>
</svg> 